<svg xmlns="http://www.w3.org/2000/svg" xmlns:xlink="http://www.w3.org/1999/xlink" width="500" zoomAndPan="magnify" viewBox="0 0 375 374.999991" height="500" preserveAspectRatio="xMidYMid meet" version="1.0"><path fill="rgb(0%, 76.858521%, 79.998779%)" d="M 187.53125 375.03125 C 84.125 375.03125 0 290.917969 0 187.53125 C 0 84.125 84.125 0 187.53125 0 C 290.929688 0 375.039062 84.125 375.039062 187.53125 C 375.039062 290.917969 290.929688 375.03125 187.53125 375.03125 Z M 187.53125 18.570312 C 94.367188 18.570312 18.570312 94.363281 18.570312 187.53125 C 18.570312 280.683594 94.363281 356.46875 187.53125 356.46875 C 280.6875 356.46875 356.476562 280.683594 356.476562 187.53125 C 356.476562 94.367188 280.6875 18.570312 187.53125 18.570312 Z M 187.53125 18.570312 " fill-opacity="1" fill-rule="nonzero"/><path fill="rgb(0%, 76.858521%, 79.998779%)" d="M 290.144531 98.683594 C 237.085938 153.914062 184.027344 209.152344 130.964844 264.386719 C 135.066406 264.386719 139.171875 264.386719 143.273438 264.386719 C 123.8125 246.386719 104.351562 228.378906 84.886719 210.375 C 76.660156 202.765625 64.320312 215.046875 72.578125 222.683594 C 92.039062 240.6875 111.503906 258.695312 130.964844 276.695312 C 134.390625 279.863281 139.890625 280.214844 143.273438 276.695312 C 196.332031 221.460938 249.394531 166.226562 302.453125 110.988281 C 310.226562 102.898438 297.929688 90.574219 290.144531 98.683594 Z M 290.144531 98.683594 " fill-opacity="1" fill-rule="nonzero"/></svg>